<svg width="155" height="34" viewBox="0 0 155 34" fill="none" xmlns="http://www.w3.org/2000/svg">
<rect width="155" height="34" fill="#FFFEFE"/>
<g filter="url(#filter0_d_0_1)">
<path d="M9.46875 23.8125C9.38542 24 9.27083 24.1458 9.125 24.25C9 24.375 8.8125 24.3854 8.5625 24.2812C8.3125 24.1979 8.13542 24.0729 8.03125 23.9062C7.94792 23.7396 7.875 23.5625 7.8125 23.375C7.77083 23.1667 7.71875 22.9688 7.65625 22.7812C7.61458 22.5938 7.52083 22.4375 7.375 22.3125C7.0625 22.0833 6.86458 21.7708 6.78125 21.375C6.65625 20.625 6.58333 19.7292 6.5625 18.6875C6.5625 17.6458 6.55208 16.9271 6.53125 16.5312C6.51042 16.1354 6.46875 15.8438 6.40625 15.6562C6.36458 15.4688 6.30208 15.3542 6.21875 15.3125C6.15625 15.2708 6.0625 15.2188 5.9375 15.1562C5.70833 15.0521 5.54167 14.6875 5.4375 14.0625C5.33333 13.4167 5.30208 12.6667 5.34375 11.8125C5.42708 10.2083 5.33333 8.83333 5.0625 7.6875C4.8125 6.60417 4.71875 5.58333 4.78125 4.625C4.84375 3.64583 4.9375 2.95833 5.0625 2.5625C5.3125 1.64583 5.76042 1.25 6.40625 1.375C7.07292 1.5 7.59375 1.55208 7.96875 1.53125C8.36458 1.51042 8.6875 1.45833 8.9375 1.375C9.1875 1.29167 9.41667 1.20833 9.625 1.125C9.83333 1.04167 10.1042 1.01042 10.4375 1.03125C10.7917 1.03125 11.1042 1.08333 11.375 1.1875C11.6667 1.27083 11.9583 1.35417 12.25 1.4375C13.0208 1.6875 13.625 1.80208 14.0625 1.78125C14.5 1.76042 14.8438 1.73958 15.0938 1.71875C15.3438 1.67708 15.5625 1.65625 15.75 1.65625C16.1458 1.65625 16.4688 1.76042 16.7188 1.96875C16.9896 2.17708 17.1458 2.40625 17.1875 2.65625C17.2292 2.90625 17.2396 3.16667 17.2188 3.4375C17.1771 3.95833 17.0833 4.39583 16.9375 4.75C16.7917 5.08333 16.7083 5.36458 16.6875 5.59375C16.6875 5.82292 16.6979 6.05208 16.7188 6.28125C16.7396 6.48958 16.7604 6.69792 16.7812 6.90625C16.8021 7.11458 16.7812 7.34375 16.7188 7.59375C16.6771 7.82292 16.5521 8.0625 16.3438 8.3125C16.1354 8.54167 15.8958 8.75 15.625 8.9375C15.0208 9.3125 14.5312 9.44792 14.1562 9.34375C13.7812 9.23958 13.5 9.15625 13.3125 9.09375C13.1458 9.01042 12.9792 8.94792 12.8125 8.90625C12.4583 8.80208 12.1146 8.79167 11.7812 8.875C11.4479 8.95833 11.2188 9.11458 11.0938 9.34375C10.9688 9.57292 10.9167 9.8125 10.9375 10.0625C10.9792 10.3125 11.1042 10.5417 11.3125 10.75C11.5208 10.9375 11.8021 11.0417 12.1562 11.0625C12.5312 11.0833 12.8333 11.0833 13.0625 11.0625C13.2917 11.0417 13.4792 11.0312 13.625 11.0312C13.9375 11.0312 14.2188 11.1667 14.4688 11.4375C14.8438 11.875 14.8125 12.5312 14.375 13.4062C14.2708 13.6354 14.1771 13.9375 14.0938 14.3125C14.0312 14.6875 13.9479 15.0625 13.8438 15.4375C13.7396 15.7917 13.6042 16.0938 13.4375 16.3438C13.2917 16.5729 13.1146 16.6667 12.9062 16.625C12.6979 16.5833 12.5521 16.5208 12.4688 16.4375C12.4062 16.3542 12.3333 16.2812 12.25 16.2188C12.0833 16.0521 11.8958 16 11.6875 16.0625C11.3542 16.1458 11.1562 16.4479 11.0938 16.9688C11.0521 17.4688 11.0417 17.9688 11.0625 18.4688C11.0833 18.9688 11.1042 19.3958 11.125 19.75C11.1667 20.1042 11.1667 20.4583 11.125 20.8125C11.0625 21.625 10.75 22.2396 10.1875 22.6562C10 22.7812 9.85417 22.9583 9.75 23.1875C9.66667 23.3958 9.57292 23.6042 9.46875 23.8125ZM19.7812 24.375C19.5729 24.4375 19.3333 24.4167 19.0625 24.3125C18.8125 24.2292 18.6354 24.0625 18.5312 23.8125C18.4271 23.5417 18.3542 23.2396 18.3125 22.9062C18.2917 22.5521 18.2917 22.1771 18.3125 21.7812C18.3333 21.3854 18.3438 21 18.3438 20.625C18.3438 19.7917 18.2083 19.2604 17.9375 19.0312C17.375 18.6146 17.1458 17.5521 17.25 15.8438C17.3542 14.8646 17.4688 14.0833 17.5938 13.5C17.8021 12.5417 17.8958 11.7292 17.875 11.0625C17.875 10.3958 17.8958 9.875 17.9375 9.5C18 9.125 18.0625 8.8125 18.125 8.5625C18.2083 8.3125 18.3021 8.05208 18.4062 7.78125C18.5104 7.51042 18.6042 7.0625 18.6875 6.4375C18.8958 4.875 19.0833 3.90625 19.25 3.53125C19.4792 3.01042 19.75 2.47917 20.0625 1.9375C20.3958 1.375 20.6667 1 20.875 0.8125C21.3542 0.458333 22.0417 0.427083 22.9375 0.71875C23.6042 0.947917 24.2188 1.02083 24.7812 0.9375C25.3646 0.854167 25.8021 0.822917 26.0938 0.84375C26.4062 0.84375 26.75 0.958333 27.125 1.1875C27.5 1.39583 27.7917 1.65625 28 1.96875C28.2083 2.26042 28.3542 2.58333 28.4375 2.9375C28.5833 3.54167 28.5938 4.3125 28.4688 5.25C28.3438 6.16667 28.2917 6.91667 28.3125 7.5C28.3542 8.0625 28.4792 8.60417 28.6875 9.125C28.9167 9.625 29.0625 10.0312 29.125 10.3438C29.2083 10.6354 29.2708 10.9375 29.3125 11.25C29.375 11.5417 29.4167 11.8646 29.4375 12.2188C29.4792 12.5521 29.5417 12.9375 29.625 13.375C29.7292 13.8125 29.7812 14.1667 29.7812 14.4375C29.8021 14.6875 29.8021 14.8958 29.7812 15.0625C29.7604 15.2292 29.7292 15.3854 29.6875 15.5312C29.6667 15.6562 29.6771 15.8646 29.7188 16.1562C29.7812 16.4271 29.7812 16.7292 29.7188 17.0625C29.6771 17.3958 29.625 17.7188 29.5625 18.0312C29.3333 18.9896 29.2396 19.6667 29.2812 20.0625C29.3646 20.7708 29.3646 21.2812 29.2812 21.5938C29.1979 21.8854 29.1146 22.125 29.0312 22.3125C28.9688 22.5 28.8854 22.7604 28.7812 23.0938C28.6979 23.4271 28.5104 23.7292 28.2188 24C27.9271 24.2708 27.6458 24.3542 27.375 24.25C27.125 24.1458 26.9583 24 26.875 23.8125C26.8125 23.6042 26.75 23.3958 26.6875 23.1875C26.6458 22.9792 26.5833 22.7917 26.5 22.625C26.4375 22.4583 26.3125 22.3646 26.125 22.3438C25.7917 22.3021 25.6146 22.1146 25.5938 21.7812C25.5729 21.4271 25.5729 21.125 25.5938 20.875C25.6354 20.6042 25.625 20.3333 25.5625 20.0625C25.5 19.7917 25.3958 19.5312 25.25 19.2812C24.875 18.6354 24.4375 18.2812 23.9375 18.2188C23.1875 18.1146 22.6667 18.4792 22.375 19.3125C22.3125 19.5208 22.2604 19.8021 22.2188 20.1562C22.1979 20.4896 22.1146 20.7917 21.9688 21.0625C21.8438 21.3333 21.6979 21.5625 21.5312 21.75C21.3854 21.9375 21.2396 22.1146 21.0938 22.2812C20.9688 22.4271 20.8854 22.6146 20.8438 22.8438C20.6771 23.7396 20.3229 24.25 19.7812 24.375ZM22.5625 11.2812C22.1458 12.4062 22.0938 13.3021 22.4062 13.9688C22.6146 14.3438 22.8854 14.5417 23.2188 14.5625C23.8438 14.625 24.2083 14.5833 24.3125 14.4375C24.4167 14.2708 24.5417 14.1042 24.6875 13.9375C24.8542 13.75 24.9167 13.4792 24.875 13.125C24.8333 12.75 24.8021 12.4271 24.7812 12.1562C24.7604 11.8646 24.6562 11.5417 24.4688 11.1875C24.3021 10.8333 24.1875 10.4583 24.125 10.0625C24.0625 9.64583 24.0208 9.25 24 8.875C23.9167 8.04167 23.7292 7.625 23.4375 7.625C23.2292 7.625 23.0938 7.73958 23.0312 7.96875C22.9896 8.17708 22.9583 8.45833 22.9375 8.8125C22.9167 9.89583 22.7917 10.7188 22.5625 11.2812ZM42.9062 5.78125C42.9688 5.90625 42.9896 6.04167 42.9688 6.1875C42.9479 6.33333 42.8021 6.58333 42.5312 6.9375C42.2604 7.29167 42.0938 7.67708 42.0312 8.09375C41.9896 8.48958 41.9792 8.82292 42 9.09375C42.0208 9.34375 42.0208 9.5625 42 9.75C41.9792 10.2083 41.7292 10.5208 41.25 10.6875C40.8333 10.8542 40.5104 10.8438 40.2812 10.6562C40.0521 10.4688 39.8646 10.2292 39.7188 9.9375C39.5729 9.625 39.4583 9.36458 39.375 9.15625C39.3125 8.92708 39.1979 8.80208 39.0312 8.78125C38.7396 8.71875 38.5104 8.75 38.3438 8.875C38.1979 9 38.0833 9.10417 38 9.1875C37.8333 9.35417 37.6562 9.46875 37.4688 9.53125C37.3021 9.59375 37.1667 9.65625 37.0625 9.71875C36.8542 9.86458 36.7708 10.1042 36.8125 10.4375C36.8958 11.0833 37.6146 12.0625 38.9688 13.375C39.2188 13.625 39.5104 13.8958 39.8438 14.1875C40.1979 14.4792 40.5417 14.8125 40.875 15.1875C41.625 16.0833 42.0417 17.0938 42.125 18.2188C42.2083 19.3646 42.0417 20.3646 41.625 21.2188C41.2917 21.9062 40.8958 22.3542 40.4375 22.5625C40.0833 22.75 39.8438 23 39.7188 23.3125C39.5938 23.6042 39.5 23.8229 39.4375 23.9688C39.375 24.0938 39.2396 24.1979 39.0312 24.2812C38.8438 24.3854 38.625 24.4271 38.375 24.4062C38.125 24.3854 37.8854 24.3333 37.6562 24.25C37.4479 24.1875 37.25 24.1042 37.0625 24C36.8958 23.9167 36.75 23.8646 36.625 23.8438C36.5208 23.8229 36.4167 23.8646 36.3125 23.9688C36.2083 24.0521 36.1042 24.1458 36 24.25C35.6875 24.5625 35.4062 24.6771 35.1562 24.5938C34.9062 24.5312 34.6146 24.4167 34.2812 24.25C33.9479 24.0833 33.625 23.875 33.3125 23.625C32.1875 22.75 31.8021 21.8542 32.1562 20.9375C32.3854 20.3333 32.6354 19.9062 32.9062 19.6562C33.1979 19.4062 33.4271 19.2812 33.5938 19.2812C33.8646 19.2812 34.0417 19.3854 34.125 19.5938C34.2292 19.7812 34.3125 19.9479 34.375 20.0938C34.4375 20.2188 34.5104 20.3229 34.5938 20.4062C34.6771 20.4896 34.8021 20.5729 34.9688 20.6562C35.1562 20.7396 35.3542 20.7917 35.5625 20.8125C36.0833 20.8542 36.4792 20.6458 36.75 20.1875C37.0208 19.7292 37.125 19.2292 37.0625 18.6875C36.9167 17.7083 36.7083 17.2917 36.4375 17.4375C36.2083 17.5833 35.9271 17.5938 35.5938 17.4688C35.2604 17.3229 35.0833 17.1458 35.0625 16.9375C35.0417 16.7083 35 16.4896 34.9375 16.2812C34.875 16.0729 34.8021 15.875 34.7188 15.6875C34.5312 15.2083 34.3646 14.9479 34.2188 14.9062C34.0521 14.8646 33.8229 14.8438 33.5312 14.8438C33.2604 14.8438 32.9583 14.6667 32.625 14.3125C32.2917 13.9375 32.0521 13.4792 31.9062 12.9375C31.7604 12.375 31.6354 11.8958 31.5312 11.5C31.4271 11.0833 31.3333 10.7604 31.25 10.5312C31.1667 10.3021 31.0938 10.0625 31.0312 9.8125C30.8229 9.02083 30.8125 8 31 6.75C31.125 6.02083 31.3542 5.38542 31.6875 4.84375C32.0208 4.28125 32.3958 3.72917 32.8125 3.1875C33.6042 2.125 34.3333 1.38542 35 0.96875C35.6667 0.552083 36.1771 0.510417 36.5312 0.84375C36.8438 1.11458 37.1771 1.22917 37.5312 1.1875C37.9062 1.125 38.1979 1.0625 38.4062 1L38.9688 0.875C39.3229 0.791667 39.6771 0.802083 40.0312 0.90625C40.4062 1.01042 40.7396 1.36458 41.0312 1.96875C41.1771 2.28125 41.3229 2.55208 41.4688 2.78125C41.6354 3.01042 41.7917 3.22917 41.9375 3.4375C42.25 3.9375 42.4271 4.35417 42.4688 4.6875C42.5312 5 42.6042 5.22917 42.6875 5.375C42.7917 5.52083 42.8646 5.65625 42.9062 5.78125ZM52.3438 20.0625L52.375 17.6875V16.9062C52.375 16.2812 52.3125 15.8854 52.1875 15.7188C52 15.4271 51.7083 15.2917 51.3125 15.3125C50.9167 15.3125 50.625 15.4271 50.4375 15.6562C50.2708 15.8854 50.1667 16.1667 50.125 16.5C50.1042 16.8333 50.0833 17.1979 50.0625 17.5938C50.0625 17.9896 50.0625 18.4167 50.0625 18.875C50.0208 19.7917 50.0208 20.5 50.0625 21C50.125 21.5 50.125 21.8229 50.0625 21.9688C50.0208 22.0938 49.9167 22.2292 49.75 22.375C49.5833 22.5 49.4479 22.6771 49.3438 22.9062C49.2396 23.1146 49.1458 23.3333 49.0625 23.5625C48.8125 24.1042 48.5521 24.3854 48.2812 24.4062C47.4688 24.4896 46.7708 24.0521 46.1875 23.0938C46.0625 22.8646 45.8958 22.6458 45.6875 22.4375C45.25 21.9583 45.1667 21.1875 45.4375 20.125C45.5417 19.625 45.5938 19.1146 45.5938 18.5938C45.5938 18.0521 45.5729 17.6667 45.5312 17.4375C45.4896 17.2083 45.4896 16.9583 45.5312 16.6875C45.5729 16.3958 45.5417 16.1458 45.4375 15.9375C45.3333 15.7083 45.2917 15.4167 45.3125 15.0625C45.3542 14.7083 45.3333 14.4062 45.25 14.1562C45.1875 13.8854 45.1771 13.6458 45.2188 13.4375C45.2604 13.2292 45.2292 13.0625 45.125 12.9375C45.0417 12.8125 45.0104 12.6354 45.0312 12.4062C45.0729 12.1562 45.1042 11.8958 45.125 11.625C45.1875 10.875 45.0938 10.3021 44.8438 9.90625C44.5938 9.51042 44.375 9.05208 44.1875 8.53125C44.0208 8.01042 44.0521 7.38542 44.2812 6.65625C44.6354 5.55208 44.7396 4.33333 44.5938 3C44.5521 2.66667 44.625 2.28125 44.8125 1.84375C45.0833 1.15625 45.9688 0.770833 47.4688 0.6875C47.9479 0.666667 48.375 0.604167 48.75 0.5C49.1458 0.395833 49.5312 0.395833 49.9062 0.5C50.3021 0.583333 50.5312 0.822917 50.5938 1.21875C50.6562 1.61458 50.7083 1.88542 50.75 2.03125C50.8125 2.17708 50.8542 2.32292 50.875 2.46875C50.9167 2.73958 50.875 3.17708 50.75 3.78125C50.625 4.36458 50.5521 4.86458 50.5312 5.28125C50.5104 5.67708 50.5 6.0625 50.5 6.4375C50.5417 7.35417 50.5 8.01042 50.375 8.40625C50.2708 8.78125 50.2396 9.07292 50.2812 9.28125C50.3229 9.46875 50.4062 9.625 50.5312 9.75C50.9479 10.125 51.5208 10.0833 52.25 9.625C52.3542 9.5625 52.4479 9.45833 52.5312 9.3125C52.4271 8.72917 52.3646 8.01042 52.3438 7.15625C52.3229 5.88542 52.2812 4.89583 52.2188 4.1875C52.1562 3.45833 52.1667 2.85417 52.25 2.375C52.3333 1.89583 52.5521 1.44792 52.9062 1.03125C53.2604 0.614583 53.5833 0.4375 53.875 0.5C54.1875 0.541667 54.4375 0.666667 54.625 0.875C54.8333 1.0625 55.0208 1.14583 55.1875 1.125C55.3542 1.10417 55.5833 1 55.875 0.8125C56.6458 0.354167 57.3646 0.635417 58.0312 1.65625C57.8229 1.86458 57.7604 2.25 57.8438 2.8125C57.9479 3.35417 57.9688 3.75 57.9062 4C57.8438 4.22917 57.8021 4.5625 57.7812 5C57.7604 5.41667 57.7396 5.82292 57.7188 6.21875C57.7188 6.61458 57.6667 7.13542 57.5625 7.78125C57.4167 8.67708 57.4062 9.70833 57.5312 10.875C57.6562 12.0417 57.6771 13.0938 57.5938 14.0312C57.5104 14.9688 57.4896 15.75 57.5312 16.375C57.5729 17 57.5521 17.4167 57.4688 17.625C57.4062 17.8333 57.3333 18.0417 57.25 18.25C56.9375 18.8542 56.7604 19.4688 56.7188 20.0938C56.6771 20.6146 56.6458 21.1354 56.625 21.6562C56.6042 22.1562 56.5521 22.6042 56.4688 23C56.2812 23.8958 55.8542 24.3438 55.1875 24.3438C54.4375 24.3438 54.0104 23.7708 53.9062 22.625C53.4271 22.4792 53.0312 22.2292 52.7188 21.875C52.4271 21.5208 52.3021 20.9167 52.3438 20.0625ZM67.3438 6.71875C66.6354 6.90625 66.5 8.11458 66.9375 10.3438C67.0833 10.9479 67.1562 11.4583 67.1562 11.875C67.1771 12.2708 67.125 12.7083 67 13.1875C66.875 13.6667 66.8125 14.0521 66.8125 14.3438C66.8125 14.6354 66.7708 14.9792 66.6875 15.375C66.7083 15.8125 66.6979 16.2604 66.6562 16.7188C66.6354 17.1562 66.6146 17.5833 66.5938 18C66.5312 19.0208 66.5208 19.625 66.5625 19.8125C66.6042 20 66.6667 20.125 66.75 20.1875C66.8542 20.2292 66.9688 20.2708 67.0938 20.3125C67.3854 20.4167 67.5625 20.5521 67.625 20.7188C67.6875 20.8854 67.7083 21.125 67.6875 21.4375C67.6875 21.7292 67.6562 22.0417 67.5938 22.375C67.4062 23.1667 67.1458 23.6771 66.8125 23.9062C66.625 24.0312 66.4271 24.0729 66.2188 24.0312C66.0312 23.9896 65.8229 23.9479 65.5938 23.9062C64.8854 23.7812 64.2812 23.8438 63.7812 24.0938C62.5521 24.7604 61.6042 24.7604 60.9375 24.0938C60.6667 23.8229 60.5 23.4062 60.4375 22.8438C60.3542 21.8229 60.4062 21.1667 60.5938 20.875C60.8021 20.5833 60.9688 20.4062 61.0938 20.3438C61.2396 20.2604 61.3646 20.1875 61.4688 20.125C61.6979 20.0208 61.8125 19.8438 61.8125 19.5938C61.8125 19.4062 61.8333 19.2083 61.875 19C61.9375 18.7708 61.9896 18.5312 62.0312 18.2812C62.1354 17.6771 62.0833 17.1771 61.875 16.7812C61.6458 16.3229 61.5417 15.9479 61.5625 15.6562C61.6042 15.3646 61.6354 15.1042 61.6562 14.875L61.7812 14.125C61.8229 13.5208 61.8125 13.0104 61.75 12.5938C61.6875 12.1562 61.6354 11.7083 61.5938 11.25C61.5729 10.7708 61.5625 10.3229 61.5625 9.90625C61.5833 9.48958 61.5938 9.09375 61.5938 8.71875C61.5938 7.84375 61.5 7.32292 61.3125 7.15625C61.1458 6.98958 60.9896 6.90625 60.8438 6.90625C60.6979 6.88542 60.5521 6.875 60.4062 6.875C60.0104 6.91667 59.7604 6.85417 59.6562 6.6875C59.4271 6.45833 59.3125 6.16667 59.3125 5.8125C59.3125 5.45833 59.375 5.1875 59.5 5C59.6458 4.8125 59.7396 4.60417 59.7812 4.375C59.8229 4.125 59.8438 3.86458 59.8438 3.59375C59.8854 2.96875 59.8646 2.5625 59.7812 2.375C59.6979 2.16667 59.6354 1.98958 59.5938 1.84375C59.5729 1.67708 59.5625 1.52083 59.5625 1.375C59.5625 0.770833 59.9896 0.458333 60.8438 0.4375C61.3646 0.416667 61.8958 0.427083 62.4375 0.46875C62.9792 0.489583 63.4062 0.46875 63.7188 0.40625C64.8021 0.197917 65.6667 0.114583 66.3125 0.15625C66.9792 0.197917 67.4062 0.25 67.5938 0.3125C68.1146 0.520833 68.3958 1.09375 68.4375 2.03125C68.4583 2.46875 68.4688 2.92708 68.4688 3.40625C68.4688 3.88542 68.4896 4.375 68.5312 4.875C68.6146 5.91667 68.2188 6.53125 67.3438 6.71875ZM73.0938 2.4375C73.3229 2.22917 73.5208 2.01042 73.6875 1.78125C73.8542 1.53125 74.0729 1.30208 74.3438 1.09375C75.0729 0.489583 75.8021 0.3125 76.5312 0.5625C77.4271 0.895833 78.25 1.10417 79 1.1875C79.75 1.27083 80.2917 1.45833 80.625 1.75C80.9792 2.04167 81.2812 2.35417 81.5312 2.6875C82.1354 3.47917 82.5 4.34375 82.625 5.28125C82.6458 5.63542 82.7083 5.88542 82.8125 6.03125C83.0833 6.48958 83.1667 7.10417 83.0625 7.875C82.9792 8.64583 82.9479 9.1875 82.9688 9.5C83.0104 9.79167 83.0625 10.0104 83.125 10.1562C83.2083 10.3021 83.2812 10.4479 83.3438 10.5938C83.5104 10.9896 83.5938 11.3854 83.5938 11.7812C83.5938 12.2812 83.4271 12.7812 83.0938 13.2812C82.9479 13.4688 82.8958 13.8333 82.9375 14.375C82.9792 14.9167 83.0104 15.4583 83.0312 16C83.0521 17.3542 82.9792 18.1979 82.8125 18.5312C82.6458 18.8438 82.5208 19.0312 82.4375 19.0938C82.375 19.1562 82.3125 19.2083 82.25 19.25C81.9375 19.3958 81.6562 19.8333 81.4062 20.5625C81.1771 21.2708 80.8646 21.8542 80.4688 22.3125C80.0729 22.75 79.6562 23.1146 79.2188 23.4062C78.8021 23.6771 78.4688 23.8854 78.2188 24.0312C77.9896 24.1979 77.8229 24.3542 77.7188 24.5C77.6146 24.6458 77.5104 24.7917 77.4062 24.9375C77.1354 25.2708 76.7917 25.4375 76.375 25.4375C75.6667 25.4375 75.1458 25.2708 74.8125 24.9375C74.6667 24.75 74.5104 24.4792 74.3438 24.125C74.0312 23.5625 73.6146 23.1042 73.0938 22.75C72.5104 22.3542 72.1562 21.7604 72.0312 20.9688C71.9688 20.6979 71.9479 20.4271 71.9688 20.1562C72.0104 19.8854 72 19.5417 71.9375 19.125C71.8958 18.7083 71.8125 18.3333 71.6875 18C71.5625 17.6667 71.4896 17.3542 71.4688 17.0625C71.3646 16.1875 71.0729 15.7188 70.5938 15.6562C70.2396 15.6146 70.0312 15.0833 69.9688 14.0625C69.9479 13.5417 69.9688 13.0521 70.0312 12.5938C70.0938 12.1146 70.1771 11.7083 70.2812 11.375C70.4479 10.7708 70.5 10.0729 70.4375 9.28125C70.375 8.46875 70.375 7.75 70.4375 7.125C70.5417 5.95833 70.7917 5.01042 71.1875 4.28125C71.375 3.96875 71.6458 3.65625 72 3.34375C72.375 3.03125 72.7396 2.72917 73.0938 2.4375ZM75.0625 11.375C75.125 11.6667 75.2292 11.9062 75.375 12.0938C75.5417 12.2604 75.6562 12.5312 75.7188 12.9062C75.8021 13.2812 75.8333 13.6979 75.8125 14.1562C75.7917 14.5938 75.7812 15.0208 75.7812 15.4375C75.7812 15.8333 75.8021 16.1979 75.8438 16.5312C75.8854 16.8438 75.9479 17.1354 76.0312 17.4062C76.2604 18.0521 76.5833 18.375 77 18.375C77.6458 18.375 78.0938 17.125 78.3438 14.625C78.4271 13.9375 78.4688 13.0625 78.4688 12C78.4688 10.9167 78.3021 9.98958 77.9688 9.21875C77.6354 8.42708 77.2292 8.03125 76.75 8.03125C76.2917 8.03125 75.875 8.54167 75.5 9.5625C75.1667 10.4792 75.0208 11.0833 75.0625 11.375ZM88.1562 1.1875C89.1979 0.770833 89.7604 0.729167 89.8438 1.0625C90.3646 0.9375 90.75 1.09375 91 1.53125C91.0833 1.67708 91.2396 1.97917 91.4688 2.4375C91.7188 2.89583 91.9792 3.38542 92.25 3.90625C92.5417 4.42708 92.8125 4.91667 93.0625 5.375C93.3125 5.83333 93.4792 6.14583 93.5625 6.3125C93.6458 6.45833 93.75 6.54167 93.875 6.5625C94 6.58333 94.125 6.55208 94.25 6.46875C94.5208 6.26042 94.5938 5.94792 94.4688 5.53125C94.3646 5.11458 94.3125 4.79167 94.3125 4.5625C94.3333 4.3125 94.3646 4.08333 94.4062 3.875C94.5312 3.29167 94.5521 2.82292 94.4688 2.46875C94.3854 2.11458 94.3438 1.78125 94.3438 1.46875C94.3438 0.84375 94.8542 0.53125 95.875 0.53125C96.0833 0.53125 96.3229 0.541667 96.5938 0.5625C96.8646 0.5625 97.2708 0.541667 97.8125 0.5C98.3542 0.4375 98.8229 0.583333 99.2188 0.9375C99.6354 1.27083 99.7708 1.875 99.625 2.75C99.4375 3.9375 99.3542 4.73958 99.375 5.15625C99.3958 5.55208 99.4062 5.92708 99.4062 6.28125C99.4062 6.65625 99.3438 7.20833 99.2188 7.9375C98.9896 9.22917 98.9271 10.1458 99.0312 10.6875C99.1146 11.1667 99.1562 11.5208 99.1562 11.75V12.25C99.1562 12.3125 99.1771 12.4479 99.2188 12.6562C99.2604 12.8646 99.25 13.0833 99.1875 13.3125C99.125 13.5208 99.1146 13.75 99.1562 14C99.1979 14.25 99.1458 14.5417 99 14.875C98.8542 15.1875 98.7812 15.5417 98.7812 15.9375C98.8021 16.3125 98.7812 16.6562 98.7188 16.9688C98.6562 17.2812 98.6875 17.6458 98.8125 18.0625C99 18.7083 98.8438 19.8438 98.3438 21.4688C98.2604 21.8646 98.125 22.125 97.9375 22.25C97.7708 22.3542 97.6458 22.4375 97.5625 22.5C97.4792 22.5625 97.4167 22.6979 97.375 22.9062C97.2708 23.3229 97.0521 23.5104 96.7188 23.4688C96.2812 23.4062 95.9271 22.9688 95.6562 22.1562C95.2812 21.0312 94.9792 20.375 94.75 20.1875C94.5208 20 94.3438 19.7396 94.2188 19.4062C94.1146 19.0729 94.0208 18.7292 93.9375 18.375C93.7708 17.5 93.6042 17 93.4375 16.875C93.2708 16.7292 93.1354 16.4583 93.0312 16.0625C92.9271 15.6667 92.8229 15.3854 92.7188 15.2188C92.6146 15.0521 92.5104 14.8646 92.4062 14.6562C92.3229 14.4479 92.2292 14.2396 92.125 14.0312C91.8542 13.5104 91.5938 13.2812 91.3438 13.3438C91.1979 13.3854 91.0938 13.5729 91.0312 13.9062C90.9896 14.2188 90.9479 14.6042 90.9062 15.0625C90.7812 16.3958 90.5729 17.3542 90.2812 17.9375C90.4688 18.4792 90.6042 18.9792 90.6875 19.4375C90.7917 19.875 90.7708 20.4062 90.625 21.0312C90.5 21.6354 90.3958 22.125 90.3125 22.5C90.2292 22.875 90.1354 23.2083 90.0312 23.5C89.9479 23.7708 89.8438 23.9792 89.7188 24.125C89.5938 24.2708 89.4375 24.3229 89.25 24.2812C89.0625 24.2604 88.9375 24.2083 88.875 24.125C88.8125 24.0417 88.75 23.9583 88.6875 23.875C88.5417 23.6042 88.2917 23.4062 87.9375 23.2812C87.5833 23.1562 87.3333 23 87.1875 22.8125C87.0417 22.625 86.9479 22.4062 86.9062 22.1562C86.8646 21.9062 86.8333 21.6354 86.8125 21.3438C86.8125 21.0521 86.7396 20.7396 86.5938 20.4062C86.4688 20.0521 86.4062 19.7604 86.4062 19.5312C86.4062 19.3021 86.4271 19.1042 86.4688 18.9375C86.5104 18.75 86.5521 18.5729 86.5938 18.4062C86.6354 18.2188 86.5938 17.9375 86.4688 17.5625C86.2188 16.7917 86.2917 16.1562 86.6875 15.6562C86.9792 15.2396 87.1042 14.8854 87.0625 14.5938C86.9375 13.9896 86.6979 13.5938 86.3438 13.4062C86.1771 13.3021 86.0938 13.1771 86.0938 13.0312C86.0938 12.7188 86.0417 12.4896 85.9375 12.3438C85.8542 12.1771 85.8542 11.9688 85.9375 11.7188C86.0208 11.4688 86.0104 11.2604 85.9062 11.0938C85.9062 11.0729 85.875 10.8646 85.8125 10.4688C85.7708 10.0521 85.7188 9.53125 85.6562 8.90625C85.6146 8.26042 85.5625 7.57292 85.5 6.84375C85.4375 6.09375 85.3958 5.375 85.375 4.6875C85.2917 3.10417 85.3021 2.17708 85.4062 1.90625C85.5312 1.63542 85.7083 1.4375 85.9375 1.3125C86.1875 1.1875 86.4479 1.10417 86.7188 1.0625C87.3021 1 87.7812 1.04167 88.1562 1.1875Z" fill="#71717A"/>
<path d="M113.938 4.0625C114.167 4.27083 114.312 4.58333 114.375 5C114.438 5.39583 114.573 6.02083 114.781 6.875C114.99 7.72917 114.948 8.64583 114.656 9.625C114.49 10.1875 114.385 10.6458 114.344 11C114.219 11.6667 114.073 12.2396 113.906 12.7188C113.76 13.1771 113.615 13.75 113.469 14.4375C113.323 15.1042 113.135 15.6875 112.906 16.1875C112.677 16.6667 112.49 17.0208 112.344 17.25C112.219 17.4792 112.104 17.6875 112 17.875C111.75 18.3542 111.594 18.7188 111.531 18.9688C111.49 19.2188 111.417 19.5 111.312 19.8125C111.229 20.1042 111.115 20.3958 110.969 20.6875C110.573 21.3542 110.094 21.6042 109.531 21.4375C108.823 22 108.365 22.4479 108.156 22.7812C107.948 23.0938 107.76 23.3229 107.594 23.4688C107.427 23.6146 107.26 23.7188 107.094 23.7812C106.948 23.8438 106.802 23.8958 106.656 23.9375C106.51 23.9792 106.365 24.0521 106.219 24.1562C106.073 24.2604 105.865 24.3438 105.594 24.4062C105.344 24.4896 105.083 24.5 104.812 24.4375C104.146 24.3125 103.792 23.7708 103.75 22.8125C103.208 22.6042 102.865 22.4062 102.719 22.2188C102.385 21.8438 102.219 21.3646 102.219 20.7812C102.219 20.1771 102.25 19.6979 102.312 19.3438C102.396 18.9688 102.469 18.6146 102.531 18.2812C102.719 17.4688 102.75 16.8333 102.625 16.375C102.5 15.8958 102.458 15.4583 102.5 15.0625C102.562 14.6458 102.573 14.1979 102.531 13.7188C102.51 13.2188 102.51 12.7812 102.531 12.4062C102.573 12.0312 102.604 11.6771 102.625 11.3438C102.667 10.9896 102.688 10.6667 102.688 10.375C102.688 10.0833 102.625 9.8125 102.5 9.5625C102.375 9.29167 102.271 9.02083 102.188 8.75C102.125 8.47917 102.073 8.22917 102.031 8C101.969 7.4375 101.865 7.03125 101.719 6.78125C101.594 6.53125 101.542 6.23958 101.562 5.90625C101.583 5.55208 101.552 5.20833 101.469 4.875C101.406 4.52083 101.375 4.25 101.375 4.0625C101.396 3.85417 101.375 3.64583 101.312 3.4375C101.271 3.20833 101.292 3.07292 101.375 3.03125C101.5 2.96875 101.615 2.70833 101.719 2.25C101.823 1.79167 101.948 1.51042 102.094 1.40625C102.24 1.28125 102.396 1.17708 102.562 1.09375C102.729 0.989583 102.917 0.916667 103.125 0.875C103.604 0.8125 104.042 0.895833 104.438 1.125C104.854 1.35417 105.156 1.45833 105.344 1.4375C105.552 1.41667 105.76 1.35417 105.969 1.25C106.635 0.979167 107.281 0.84375 107.906 0.84375C108.531 0.84375 108.969 0.885417 109.219 0.96875C109.469 1.03125 109.667 1.10417 109.812 1.1875C109.958 1.25 110.094 1.32292 110.219 1.40625C110.365 1.46875 110.562 1.5 110.812 1.5C111.083 1.5 111.281 1.5625 111.406 1.6875C111.531 1.8125 111.646 1.95833 111.75 2.125C111.875 2.29167 112.01 2.45833 112.156 2.625C112.302 2.79167 112.49 2.90625 112.719 2.96875C112.969 3.01042 113.125 3.0625 113.188 3.125C113.271 3.16667 113.333 3.22917 113.375 3.3125C113.417 3.375 113.458 3.45833 113.5 3.5625C113.562 3.66667 113.708 3.83333 113.938 4.0625ZM107.344 8.875C107.135 9.10417 107.052 9.47917 107.094 10C107.135 10.5 107.208 11.0729 107.312 11.7188C107.417 12.3438 107.458 12.8646 107.438 13.2812C107.417 13.6979 107.375 14.1042 107.312 14.5C107.271 14.8958 107.219 15.2917 107.156 15.6875C107.115 16.0833 107.094 16.4792 107.094 16.875C107.094 17.25 107.146 17.5208 107.25 17.6875C107.354 17.8542 107.469 17.9375 107.594 17.9375C107.719 17.9167 107.844 17.8333 107.969 17.6875C108.094 17.5208 108.177 17.2604 108.219 16.9062C108.281 16.5312 108.417 16.1771 108.625 15.8438C108.854 15.4896 109.031 15.1354 109.156 14.7812C109.281 14.4271 109.354 14.1667 109.375 14C109.417 13.8333 109.448 13.6875 109.469 13.5625C109.49 13.4167 109.5 13.2708 109.5 13.125C109.521 12.9583 109.583 12.7083 109.688 12.375C109.792 12.0417 109.802 11.75 109.719 11.5C109.656 11.2292 109.604 10.9271 109.562 10.5938C109.521 10.2604 109.448 9.95833 109.344 9.6875C109.26 9.39583 109.052 9.19792 108.719 9.09375C108.573 9.05208 108.438 8.98958 108.312 8.90625C108.208 8.82292 108.104 8.75 108 8.6875C107.771 8.58333 107.552 8.64583 107.344 8.875ZM123.688 6.71875C122.979 6.90625 122.844 8.11458 123.281 10.3438C123.427 10.9479 123.5 11.4583 123.5 11.875C123.521 12.2708 123.469 12.7083 123.344 13.1875C123.219 13.6667 123.156 14.0521 123.156 14.3438C123.156 14.6354 123.115 14.9792 123.031 15.375C123.052 15.8125 123.042 16.2604 123 16.7188C122.979 17.1562 122.958 17.5833 122.938 18C122.875 19.0208 122.865 19.625 122.906 19.8125C122.948 20 123.01 20.125 123.094 20.1875C123.198 20.2292 123.312 20.2708 123.438 20.3125C123.729 20.4167 123.906 20.5521 123.969 20.7188C124.031 20.8854 124.052 21.125 124.031 21.4375C124.031 21.7292 124 22.0417 123.938 22.375C123.75 23.1667 123.49 23.6771 123.156 23.9062C122.969 24.0312 122.771 24.0729 122.562 24.0312C122.375 23.9896 122.167 23.9479 121.938 23.9062C121.229 23.7812 120.625 23.8438 120.125 24.0938C118.896 24.7604 117.948 24.7604 117.281 24.0938C117.01 23.8229 116.844 23.4062 116.781 22.8438C116.698 21.8229 116.75 21.1667 116.938 20.875C117.146 20.5833 117.312 20.4062 117.438 20.3438C117.583 20.2604 117.708 20.1875 117.812 20.125C118.042 20.0208 118.156 19.8438 118.156 19.5938C118.156 19.4062 118.177 19.2083 118.219 19C118.281 18.7708 118.333 18.5312 118.375 18.2812C118.479 17.6771 118.427 17.1771 118.219 16.7812C117.99 16.3229 117.885 15.9479 117.906 15.6562C117.948 15.3646 117.979 15.1042 118 14.875L118.125 14.125C118.167 13.5208 118.156 13.0104 118.094 12.5938C118.031 12.1562 117.979 11.7083 117.938 11.25C117.917 10.7708 117.906 10.3229 117.906 9.90625C117.927 9.48958 117.938 9.09375 117.938 8.71875C117.938 7.84375 117.844 7.32292 117.656 7.15625C117.49 6.98958 117.333 6.90625 117.188 6.90625C117.042 6.88542 116.896 6.875 116.75 6.875C116.354 6.91667 116.104 6.85417 116 6.6875C115.771 6.45833 115.656 6.16667 115.656 5.8125C115.656 5.45833 115.719 5.1875 115.844 5C115.99 4.8125 116.083 4.60417 116.125 4.375C116.167 4.125 116.188 3.86458 116.188 3.59375C116.229 2.96875 116.208 2.5625 116.125 2.375C116.042 2.16667 115.979 1.98958 115.938 1.84375C115.917 1.67708 115.906 1.52083 115.906 1.375C115.906 0.770833 116.333 0.458333 117.188 0.4375C117.708 0.416667 118.24 0.427083 118.781 0.46875C119.323 0.489583 119.75 0.46875 120.062 0.40625C121.146 0.197917 122.01 0.114583 122.656 0.15625C123.323 0.197917 123.75 0.25 123.938 0.3125C124.458 0.520833 124.74 1.09375 124.781 2.03125C124.802 2.46875 124.812 2.92708 124.812 3.40625C124.812 3.88542 124.833 4.375 124.875 4.875C124.958 5.91667 124.562 6.53125 123.688 6.71875ZM128.719 24.375C128.51 24.4375 128.271 24.4167 128 24.3125C127.75 24.2292 127.573 24.0625 127.469 23.8125C127.365 23.5417 127.292 23.2396 127.25 22.9062C127.229 22.5521 127.229 22.1771 127.25 21.7812C127.271 21.3854 127.281 21 127.281 20.625C127.281 19.7917 127.146 19.2604 126.875 19.0312C126.312 18.6146 126.083 17.5521 126.188 15.8438C126.292 14.8646 126.406 14.0833 126.531 13.5C126.74 12.5417 126.833 11.7292 126.812 11.0625C126.812 10.3958 126.833 9.875 126.875 9.5C126.938 9.125 127 8.8125 127.062 8.5625C127.146 8.3125 127.24 8.05208 127.344 7.78125C127.448 7.51042 127.542 7.0625 127.625 6.4375C127.833 4.875 128.021 3.90625 128.188 3.53125C128.417 3.01042 128.688 2.47917 129 1.9375C129.333 1.375 129.604 1 129.812 0.8125C130.292 0.458333 130.979 0.427083 131.875 0.71875C132.542 0.947917 133.156 1.02083 133.719 0.9375C134.302 0.854167 134.74 0.822917 135.031 0.84375C135.344 0.84375 135.688 0.958333 136.062 1.1875C136.438 1.39583 136.729 1.65625 136.938 1.96875C137.146 2.26042 137.292 2.58333 137.375 2.9375C137.521 3.54167 137.531 4.3125 137.406 5.25C137.281 6.16667 137.229 6.91667 137.25 7.5C137.292 8.0625 137.417 8.60417 137.625 9.125C137.854 9.625 138 10.0312 138.062 10.3438C138.146 10.6354 138.208 10.9375 138.25 11.25C138.312 11.5417 138.354 11.8646 138.375 12.2188C138.417 12.5521 138.479 12.9375 138.562 13.375C138.667 13.8125 138.719 14.1667 138.719 14.4375C138.74 14.6875 138.74 14.8958 138.719 15.0625C138.698 15.2292 138.667 15.3854 138.625 15.5312C138.604 15.6562 138.615 15.8646 138.656 16.1562C138.719 16.4271 138.719 16.7292 138.656 17.0625C138.615 17.3958 138.562 17.7188 138.5 18.0312C138.271 18.9896 138.177 19.6667 138.219 20.0625C138.302 20.7708 138.302 21.2812 138.219 21.5938C138.135 21.8854 138.052 22.125 137.969 22.3125C137.906 22.5 137.823 22.7604 137.719 23.0938C137.635 23.4271 137.448 23.7292 137.156 24C136.865 24.2708 136.583 24.3542 136.312 24.25C136.062 24.1458 135.896 24 135.812 23.8125C135.75 23.6042 135.688 23.3958 135.625 23.1875C135.583 22.9792 135.521 22.7917 135.438 22.625C135.375 22.4583 135.25 22.3646 135.062 22.3438C134.729 22.3021 134.552 22.1146 134.531 21.7812C134.51 21.4271 134.51 21.125 134.531 20.875C134.573 20.6042 134.562 20.3333 134.5 20.0625C134.438 19.7917 134.333 19.5312 134.188 19.2812C133.812 18.6354 133.375 18.2812 132.875 18.2188C132.125 18.1146 131.604 18.4792 131.312 19.3125C131.25 19.5208 131.198 19.8021 131.156 20.1562C131.135 20.4896 131.052 20.7917 130.906 21.0625C130.781 21.3333 130.635 21.5625 130.469 21.75C130.323 21.9375 130.177 22.1146 130.031 22.2812C129.906 22.4271 129.823 22.6146 129.781 22.8438C129.615 23.7396 129.26 24.25 128.719 24.375ZM131.5 11.2812C131.083 12.4062 131.031 13.3021 131.344 13.9688C131.552 14.3438 131.823 14.5417 132.156 14.5625C132.781 14.625 133.146 14.5833 133.25 14.4375C133.354 14.2708 133.479 14.1042 133.625 13.9375C133.792 13.75 133.854 13.4792 133.812 13.125C133.771 12.75 133.74 12.4271 133.719 12.1562C133.698 11.8646 133.594 11.5417 133.406 11.1875C133.24 10.8333 133.125 10.4583 133.062 10.0625C133 9.64583 132.958 9.25 132.938 8.875C132.854 8.04167 132.667 7.625 132.375 7.625C132.167 7.625 132.031 7.73958 131.969 7.96875C131.927 8.17708 131.896 8.45833 131.875 8.8125C131.854 9.89583 131.729 10.7188 131.5 11.2812ZM150.031 19.2812C150.135 19.4271 150.177 19.6146 150.156 19.8438C150.156 20.0521 150.135 20.2708 150.094 20.5C150.073 20.7292 150.083 20.9896 150.125 21.2812C150.167 21.5521 150.198 21.8229 150.219 22.0938C150.26 22.3438 150.281 22.5833 150.281 22.8125C150.281 23.0417 150.208 23.2396 150.062 23.4062C149.938 23.5521 149.74 23.6771 149.469 23.7812C149.198 23.8854 148.896 23.9583 148.562 24C147.792 24.0625 147.125 23.9479 146.562 23.6562C146.042 23.3854 145.542 23.3021 145.062 23.4062C144.604 23.5104 144.24 23.6146 143.969 23.7188C143.719 23.8021 143.417 23.8854 143.062 23.9688C142.729 24.0521 142.396 24.0833 142.062 24.0625C141.729 24.0625 141.448 23.8854 141.219 23.5312C140.99 23.1562 140.865 22.7292 140.844 22.25C140.823 21.7708 140.896 21.2812 141.062 20.7812C141.229 20.2812 141.292 19.7188 141.25 19.0938C141.208 18.4479 141.167 17.9062 141.125 17.4688C141.083 17.0104 141.083 16.6146 141.125 16.2812C141.229 15.4896 141.135 14.9375 140.844 14.625C140.615 14.3542 140.5 14.0417 140.5 13.6875C140.5 13.3125 140.51 13.0104 140.531 12.7812C140.552 12.5521 140.625 12.3542 140.75 12.1875C140.875 12.0208 140.948 11.8854 140.969 11.7812C141.01 11.6562 141.01 11.4479 140.969 11.1562C140.802 9.96875 140.74 9.05208 140.781 8.40625C140.844 7.76042 140.833 7.20833 140.75 6.75C140.688 6.27083 140.677 5.88542 140.719 5.59375C140.76 5.28125 140.74 5.02083 140.656 4.8125C140.573 4.60417 140.542 4.45833 140.562 4.375C140.604 4.27083 140.604 4.13542 140.562 3.96875C140.521 3.78125 140.479 3.58333 140.438 3.375C140.312 2.75 140.271 2.32292 140.312 2.09375C140.375 1.86458 140.479 1.60417 140.625 1.3125C140.792 1 140.99 0.8125 141.219 0.75C141.448 0.6875 141.583 0.635417 141.625 0.59375C141.667 0.552083 141.771 0.5 141.938 0.4375C142.375 0.3125 142.698 0.302083 142.906 0.40625C143.115 0.510417 143.302 0.572917 143.469 0.59375C143.635 0.59375 143.802 0.59375 143.969 0.59375C144.156 0.572917 144.333 0.541667 144.5 0.5L144.875 0.4375C145.312 0.3125 145.646 0.333333 145.875 0.5C146.021 0.645833 146.125 0.760417 146.188 0.84375C146.25 0.927083 146.26 1.05208 146.219 1.21875C146.177 1.38542 146.198 1.52083 146.281 1.625C146.365 1.72917 146.396 1.88542 146.375 2.09375C146.354 2.28125 146.344 2.42708 146.344 2.53125C146.365 2.61458 146.385 2.70833 146.406 2.8125C146.448 3.02083 146.427 3.27083 146.344 3.5625C146.26 3.85417 146.208 4.05208 146.188 4.15625C146.167 4.23958 146.156 4.32292 146.156 4.40625C146.156 4.67708 146.115 4.9375 146.031 5.1875C145.969 5.41667 145.927 5.61458 145.906 5.78125C145.906 5.92708 145.906 6.10417 145.906 6.3125V7C145.906 7.25 145.885 7.5625 145.844 7.9375C145.823 8.3125 145.792 8.76042 145.75 9.28125C145.729 9.78125 145.708 10.2917 145.688 10.8125C145.604 12.1875 145.5 13.0625 145.375 13.4375C145.042 13.625 144.99 14.0625 145.219 14.75L145.438 15.4062C145.646 16.0312 145.75 16.6458 145.75 17.25C145.75 17.8542 145.698 18.4375 145.594 19C146.198 19.3333 146.625 19.5104 146.875 19.5312C147.479 19.6146 148.021 19.5312 148.5 19.2812C149 19.0312 149.354 18.9271 149.562 18.9688C149.792 19.0104 149.948 19.1146 150.031 19.2812Z" fill="#1A2E05"/>
</g>
<defs>
<filter id="filter0_d_0_1" x="0.6875" y="0.09375" width="153.594" height="33.3438" filterUnits="userSpaceOnUse" color-interpolation-filters="sRGB">
<feFlood flood-opacity="0" result="BackgroundImageFix"/>
<feColorMatrix in="SourceAlpha" type="matrix" values="0 0 0 0 0 0 0 0 0 0 0 0 0 0 0 0 0 0 127 0" result="hardAlpha"/>
<feOffset dy="4"/>
<feGaussianBlur stdDeviation="2"/>
<feComposite in2="hardAlpha" operator="out"/>
<feColorMatrix type="matrix" values="0 0 0 0 0 0 0 0 0 0 0 0 0 0 0 0 0 0 0.25 0"/>
<feBlend mode="normal" in2="BackgroundImageFix" result="effect1_dropShadow_0_1"/>
<feBlend mode="normal" in="SourceGraphic" in2="effect1_dropShadow_0_1" result="shape"/>
</filter>
</defs>
</svg>
